<svg width="10" height="16" viewBox="0 0 10 16" fill="none" xmlns="http://www.w3.org/2000/svg">
<path d="M9.13002 7.17169L2.52669 0.580022C2.41823 0.470672 2.28919 0.383879 2.14703 0.324649C2.00486 0.265419 1.85237 0.234924 1.69835 0.234924C1.54434 0.234924 1.39185 0.265419 1.24968 0.324649C1.10751 0.383879 0.978476 0.470672 0.87002 0.580022C0.652727 0.798612 0.530762 1.09431 0.530762 1.40252C0.530762 1.71074 0.652727 2.00643 0.87002 2.22502L6.64502 8.05836L0.87002 13.8334C0.652727 14.0519 0.530762 14.3476 0.530762 14.6559C0.530762 14.9641 0.652727 15.2598 0.87002 15.4784C0.97807 15.5886 1.10692 15.6763 1.24911 15.7364C1.3913 15.7964 1.54399 15.8277 1.69835 15.8284C1.85271 15.8277 2.00541 15.7964 2.1476 15.7364C2.28978 15.6763 2.41864 15.5886 2.52669 15.4784L9.13002 8.88669C9.24844 8.77744 9.34295 8.64485 9.40759 8.49726C9.47224 8.34968 9.50561 8.19031 9.50561 8.02919C9.50561 7.86807 9.47224 7.7087 9.40759 7.56111C9.34295 7.41353 9.24844 7.28094 9.13002 7.17169Z" fill="black"/>
</svg>
